<svg xmlns="http://www.w3.org/2000/svg" data-name="Layer 1" viewBox="0 0 100 125" x="0px" y="0px"><path d="m69.71,58.19c4.07-7.87,7.92-15.3,7.92-20.56,0-15.24-12.4-27.63-27.63-27.63s-27.63,12.4-27.63,27.63c0,5.26,3.85,12.69,7.92,20.56,1.85,3.57,3.75,7.25,5.27,10.7l3.2,7.9c-.05.06-.11.1-.16.17-.67.88-.88,1.99-.59,3.05l2.04,7.42c.42,1.51,1.8,2.57,3.37,2.57h13.17c1.57,0,2.96-1.06,3.37-2.57l2.04-7.42c.29-1.06.08-2.17-.59-3.05-.05-.06-.11-.11-.16-.17l3.2-7.9c1.51-3.44,3.42-7.13,5.27-10.7ZM51.5,13.22c5.59,1.62,10.07,12.14,10.07,24.41,0,4.7-1.86,11.89-3.83,19.5-.83,3.21-1.68,6.51-2.4,9.67h-3.84V13.22Zm-3,0v53.58h-3.84c-.72-3.17-1.57-6.46-2.4-9.67-1.97-7.61-3.83-14.8-3.83-19.5,0-12.27,4.48-22.79,10.07-24.41Zm-10.6,53.58c-1.48-3.27-3.23-6.68-4.95-9.99-3.73-7.2-7.58-14.65-7.58-19.18,0-10.82,7.01-20.02,16.72-23.32-4.03,4.86-6.66,13.4-6.66,23.32,0,5.08,1.91,12.45,3.92,20.25.77,2.96,1.55,6,2.23,8.92h-3.69Zm1.26,3h9.34v5.78h-7l-2.34-5.78Zm19.95,9.41l-2.04,7.42c-.06.22-.26.37-.48.37h-13.17c-.22,0-.42-.15-.48-.37l-2.04-7.42c-.06-.21.03-.36.08-.44.02-.03.06-.06.11-.1.01,0,.03,0,.04-.01.03-.01.05-.03.07-.04.05-.02.1-.05.17-.05h17.25c.07,0,.12.03.17.05.02.01.05.03.07.04.01,0,.03,0,.04.01.04.03.09.07.11.1.06.07.14.23.08.44Zm-.61-3.63h-7v-5.78h9.34l-2.34,5.78Zm-.09-8.78c.68-2.92,1.46-5.96,2.23-8.92,2.02-7.8,3.92-15.17,3.92-20.25,0-9.92-2.63-18.46-6.66-23.32,9.71,3.3,16.72,12.51,16.72,23.32,0,4.53-3.86,11.98-7.58,19.18-1.71,3.31-3.47,6.72-4.95,9.99h-3.69Z"/><path d="m51.52,82.39h-3.04c-.83,0-1.5.67-1.5,1.5s.67,1.5,1.5,1.5h3.04c.83,0,1.5-.67,1.5-1.5s-.67-1.5-1.5-1.5Z"/><text x="0" y="115" fill="#000000" font-size="5px" font-weight="bold" font-family="'Helvetica Neue', Helvetica, Arial-Unicode, Arial, Sans-serif">Created by Uswa KDT</text><text x="0" y="120" fill="#000000" font-size="5px" font-weight="bold" font-family="'Helvetica Neue', Helvetica, Arial-Unicode, Arial, Sans-serif">from the Noun Project</text></svg>