<?xml version="1.0" encoding="UTF-8"?>
<svg width="1200pt" height="1200pt" version="1.1" viewBox="0 0 1200 1200" xmlns="http://www.w3.org/2000/svg">
 <path d="m818.43 254.74c-19.004-24.371-41.633-42.68-64.301-52.676 18.602 20.672 33.875 46.031 44.664 74.574 15.461 40.895 21 87.125 16.039 133.7-6.4336 60.258-50.027 150.91-96.188 246.89-7.8008 16.199-15.871 33-23.707 49.531-10.43 22.008-21.602 43.59-33.07 64.133h-18.82c12.898-22.57 25.441-46.59 37.086-71.152 7.8555-16.566 15.93-33.367 23.742-49.613 45.523-94.668 88.527-184.09 94.66-241.54 10.734-100.62-30.602-175.27-72.895-211.56-24.289-20.852-51-31.613-75.602-30.859 12.559 13.039 24.16 31.133 34.312 53.867 22.488 50.359 37.465 100.56 37.465 181.86 0 69.426-33.234 183.47-68.398 304.2-3.3672 11.551-6.7305 23.113-10.094 34.688-2.9648 10.199-6.1758 20.23-9.4688 30.086h-17.293c3.8516-11.352 7.6211-22.902 11.023-34.645 3.3516-11.562 6.7188-23.133 10.098-34.711 33.316-114.33 67.801-232.55 67.801-299.64 0-78.66-13.801-125.35-36.043-175.2-19.68-44.062-43.969-68.336-68.398-68.336-24.434 0-48.707 24.27-68.398 68.336-22.254 49.828-36.047 96.516-36.047 175.2 0 67.078 34.453 185.3 67.801 299.63 3.3672 11.562 6.7344 23.137 10.098 34.715 3.4023 11.746 7.1641 23.293 11.023 34.645h-17.32c-3.293-9.8516-6.5117-19.867-9.4688-30.086-3.3477-11.555-6.7109-23.121-10.094-34.691-35.191-120.74-68.398-234.8-68.398-304.2 0-81.293 15-131.5 37.469-181.86 10.129-22.676 21.703-40.738 34.199-53.766-25.141-1.3867-52.715 9.4453-77.723 30.973-42.34 36.422-83.656 111.06-72.719 211.35 6.2891 57.602 49.434 147.41 95.113 242.48 7.6602 15.941 15.602 32.438 23.293 48.691 10.668 22.512 23.203 45.742 38.398 71.152h-19.043c-13.262-22.621-24.469-43.656-34.199-64.133-7.6875-16.199-15.602-32.684-23.25-48.602-46.301-96.359-90.043-187.38-96.637-247.8-5.0625-46.422 0.41406-92.562 15.852-133.45 10.801-28.648 26.141-54.121 44.879-74.867-22.68 9.9883-45.324 28.301-64.332 52.688-41.062 52.676-57.188 123.06-44.238 193.12 8.7773 47.496 38.172 109.2 87.355 183.34 29.328 44.227 65.027 91.938 106.39 142.25v-0.003906c-0.085938 0.91406 0.003906 1.832 0.25781 2.7148l2.3281 9.3711c1.0156 4.0859 4.3672 7.6328 8.3516 9.3164l-22.199 97.375c-4.582 0.60937-8.7852 2.8594-11.832 6.332-3.043 3.4766-4.7266 7.9375-4.7344 12.555v111.41c0.007812 5.0547 2.0234 9.9023 5.6016 13.477s8.4258 5.582 13.484 5.5859h158.1c5.0586-0.007812 9.9062-2.0195 13.48-5.5938 3.5781-3.5781 5.5898-8.4258 5.5938-13.48v-111.41c-0.003906-4.6289-1.6914-9.0977-4.75-12.574-3.0547-3.4766-7.2734-5.7266-11.863-6.3242l-22.723-97.414c3.9375-1.7031 7.2422-5.2266 8.2422-9.2773l2.3281-9.3711 0.003907-0.003906c0.26562-0.90234 0.34766-1.8516 0.24609-2.7891 32.785-40.098 71.242-90.07 105.37-142.13 48.492-73.973 77.551-135.67 86.363-183.38 12.934-70.051-3.1953-140.44-44.258-193.11zm-242.05 541.16-8.5977 96.137h-33.246l21.941-96.137zm14.398 0h20.562l9.0547 96.137h-38.211zm44.047 96.137-9.0781-96.137h19.895l22.43 96.137z" fill="#00449e"/>
</svg>
